<?xml version="1.0" encoding="UTF-8" standalone="no"?>
<svg
   xmlns:dc="http://purl.org/dc/elements/1.1/"
   xmlns:cc="http://creativecommons.org/ns#"
   xmlns:rdf="http://www.w3.org/1999/02/22-rdf-syntax-ns#"
   xmlns:svg="http://www.w3.org/2000/svg"
   xmlns="http://www.w3.org/2000/svg"
   xmlns:sodipodi="http://sodipodi.sourceforge.net/DTD/sodipodi-0.dtd"
   xmlns:inkscape="http://www.inkscape.org/namespaces/inkscape"
   height="24px"
   version="1.1"
   viewBox="0 0 24 24"
   width="24px"
   id="svg4254"
   inkscape:version="0.91 r13725"
   sodipodi:docname="left-arrow.svg">
  <metadata
     id="metadata4268">
    <rdf:RDF>
      <cc:Work
         rdf:about="">
        <dc:format>image/svg+xml</dc:format>
        <dc:type
           rdf:resource="http://purl.org/dc/dcmitype/StillImage" />
      </cc:Work>
    </rdf:RDF>
  </metadata>
  <sodipodi:namedview
     pagecolor="#ffffff"
     bordercolor="#666666"
     borderopacity="1"
     objecttolerance="10"
     gridtolerance="10"
     guidetolerance="10"
     inkscape:pageopacity="0"
     inkscape:pageshadow="2"
     inkscape:window-width="960"
     inkscape:window-height="1148"
     id="namedview4266"
     showgrid="false"
     inkscape:zoom="27.812867"
     inkscape:cx="17.834106"
     inkscape:cy="7.310573"
     inkscape:window-x="0"
     inkscape:window-y="24"
     inkscape:window-maximized="0"
     inkscape:current-layer="svg4254" />
  <title
     id="title4256" />
  <desc
     id="desc4258" />
  <defs
     id="defs4260" />
  <g
     id="miu"
     stroke-width="1"
     stroke="none"
     fill-rule="evenodd"
     fill="white">
    <g
       id="Artboard-1"
       transform="translate(-395.000000, -191.000000)">
      <g
         id="slice"
         transform="translate(215.000000, 119.000000)" />
      <path
         d="M396,202.5 C396,196.148725 401.148725,191 407.5,191 C413.851275,191 419,196.148725 419,202.5 C419,208.851275 413.851275,214 407.5,214 C401.148725,214 396,208.851275 396,202.5 Z M408.656854,196.843146 L410.071068,198.257359 L405.828427,202.5 L410.071068,206.742641 L408.656854,208.156854 L403,202.5 L408.656854,196.843146 Z"
         id="circle-back-arrow-glyph"
         fill="#000000" />
    </g>
  </g>
  <path
     style="fill:#ffffff;fill-opacity:1"
     d="M 10.83893,14.321607 8.0256951,11.508201 10.839357,8.6947097 13.653019,5.881219 14.344818,6.5737012 15.036617,7.2661833 12.933385,9.369185 c -1.156778,1.156651 -2.103232,2.119182 -2.103232,2.138958 0,0.01978 0.946557,0.982615 2.103459,2.139642 l 2.10346,2.103686 -0.692454,0.691771 -0.692453,0.69177 -2.813235,-2.813405 z"
     id="path4270"
     inkscape:connector-curvature="0" />
  <path
     style="fill:#3f5586;fill-opacity:1"
     d="M 11.743033,22.957513 C 9.7976468,22.833287 7.8144007,22.16582 6.2044721,21.093496 4.7064604,20.095717 3.5154463,18.851698 2.6259018,17.355665 0.37811108,13.575338 0.50054995,8.79747 2.9388007,5.1455736 3.8647264,3.7587654 5.2040578,2.4796122 6.5941396,1.6544743 11.490785,-1.2521228 17.67244,-0.2035381 21.31561,4.1516545 c 2.113082,2.5260646 3.02908,5.8226697 2.530085,9.1055835 -0.602646,3.964837 -3.299464,7.366389 -7.047081,8.888625 -1.146351,0.465634 -2.299492,0.724054 -3.631413,0.813802 -0.57789,0.03894 -0.785594,0.03863 -1.424168,-0.0022 l 0,-2e-6 z m 1.227604,-9.344612 -2.11991,-2.120139 2.119218,-2.1229626 2.119218,-2.1229635 -0.699964,-0.7006552 C 14.004218,6.1608202 13.67286,5.8455251 13.652848,5.8455251 c -0.02001,0 -1.306405,1.2700956 -2.858649,2.8224351 l -2.8222636,2.8224348 2.8402286,2.840399 2.840228,2.840399 0.719077,-0.719077 0.719077,-0.719078 -2.119909,-2.120137 z"
     id="path3347"
     inkscape:connector-curvature="0" />
</svg>
